<?xml version="1.0" encoding="UTF-8"?>
<svg version="1.1" xmlns="http://www.w3.org/2000/svg" width="500" height="500">
<path d="M0 0 C3.80278032 3.19893618 6.9993248 6.79162477 10.13671875 10.6328125 C11.70247543 12.49100205 11.70247543 12.49100205 14.56640625 14.55078125 C22.66401579 21.05437316 25.92275894 31.96809838 27.37890625 41.86328125 C28.8580289 61.94158451 21.0901728 79.42461246 8.25390625 94.48828125 C-2.11880634 105.57145361 -16.55562274 114.90589893 -32.05859375 115.55078125 C-36.15539979 115.44482937 -38.97420026 114.54454358 -42.43359375 112.23828125 C-44.36782824 110.17065128 -45.34161676 108.99709143 -45.68359375 106.17578125 C-45.93109375 105.53640625 -46.17859375 104.89703125 -46.43359375 104.23828125 C-48.15876113 103.48962371 -49.88714323 102.7461064 -51.640625 102.06640625 C-54.63495188 100.6834056 -55.89510129 99.12295462 -57.43359375 96.23828125 C-57.54038801 90.04421392 -55.33429395 85.48491346 -52.70703125 79.95703125 C-49.02709629 72.10048298 -47.85834699 64.89445935 -47.43359375 56.23828125 C-57.02189203 54.1075483 -66.83607545 56.77203798 -75.43359375 61.23828125 C-91.3733331 71.43971444 -100.03689662 87.28812932 -104.43359375 105.23828125 C-106.93046956 120.37107551 -104.68311159 133.32384954 -98.43359375 147.23828125 C-98.10359375 148.22828125 -97.77359375 149.21828125 -97.43359375 150.23828125 C-95.22826008 151.32852078 -95.22826008 151.32852078 -92.43359375 152.23828125 C-91.30566406 152.71265625 -90.17773438 153.18703125 -89.015625 153.67578125 C-81.91541216 156.64077754 -75.12958142 159.32948749 -67.43359375 160.23828125 C-66.37527344 160.37105469 -65.31695312 160.50382813 -64.2265625 160.640625 C-44.94933749 162.49942568 -21.15941418 160.79817743 -5.43359375 148.23828125 C-2.58349041 145.36436089 0.15645348 142.47419108 2.828125 139.43359375 C5.56640625 137.23828125 5.56640625 137.23828125 9.22265625 136.8203125 C13.31938564 137.33240367 14.8154982 138.17298371 17.56640625 141.23828125 C17.99953125 143.03265625 17.99953125 143.03265625 18.44140625 144.86328125 C18.99828125 146.53390625 18.99828125 146.53390625 19.56640625 148.23828125 C22.95465622 149.4206978 22.95465622 149.4206978 26.56640625 150.23828125 C29.45828292 152.83355518 30.43300251 154.38180683 31.03125 158.22265625 C30.8868041 163.8901208 27.49467654 168.55687508 24.69140625 173.30078125 C24.10077393 174.32067139 23.5101416 175.34056152 22.90161133 176.39135742 C18.22573731 184.36086531 13.21427452 191.93098776 7.56640625 199.23828125 C6.85742188 200.15738281 6.1484375 201.07648438 5.41796875 202.0234375 C3.50091953 204.45831036 1.54572322 206.85391419 -0.43359375 209.23828125 C-0.98273438 209.92277344 -1.531875 210.60726562 -2.09765625 211.3125 C-6.89286077 217.09628934 -12.49160121 221.67006414 -18.43359375 226.23828125 C-19.60535156 227.1509375 -19.60535156 227.1509375 -20.80078125 228.08203125 C-43.42417609 244.84010151 -71.56517254 251.16535323 -99.28637695 247.46484375 C-117.47945029 244.64997047 -133.67570911 237.83257642 -145.61328125 223.34765625 C-147.40404343 221.27252412 -149.25839426 219.60315142 -151.37109375 217.86328125 C-169.7592993 202.10711296 -176.92531116 178.5842382 -179.20654297 155.23681641 C-182.62042118 110.15159894 -168.99608329 66.81577981 -139.75634766 32.25585938 C-107.54494934 -4.87787487 -44.92243208 -32.52009128 0 0 Z " fill="#D4A865" transform="translate(311.43359375,112.76171875)"/>
<path d="M0 0 C4.52621655 0.64798399 8.02333222 1.16625921 11.5625 4.1875 C13.33705009 7.65944584 13.72626604 10.22178452 13 14 C11.35187436 17.87110842 9.26329421 21.44391669 7.125 25.0625 C6.53436768 26.08239014 5.94373535 27.10228027 5.33520508 28.15307617 C0.65933106 36.12258406 -4.35213173 43.69270651 -10 51 C-10.70898438 51.91910156 -11.41796875 52.83820313 -12.1484375 53.78515625 C-14.06548672 56.22002911 -16.02068303 58.61563294 -18 61 C-18.82371094 62.02673828 -18.82371094 62.02673828 -19.6640625 63.07421875 C-24.45926702 68.85800809 -30.05800746 73.43178289 -36 78 C-36.78117187 78.6084375 -37.56234375 79.216875 -38.3671875 79.84375 C-60.99058234 96.60182026 -89.13157879 102.92707198 -116.8527832 99.2265625 C-134.08759936 96.55995293 -150.03648457 90.14455717 -162 77 C-162 76.34 -162 75.68 -162 75 C-159.03662755 76.11126467 -156.34860594 77.35530585 -153.5625 78.875 C-134.95451742 88.2138377 -112.07317759 88.94074652 -92 85 C-90.37771484 84.690625 -90.37771484 84.690625 -88.72265625 84.375 C-68.15736227 80.07120483 -50.52092432 68.9342238 -36 54 C-34.71416016 52.71029297 -34.71416016 52.71029297 -33.40234375 51.39453125 C-19.75037694 37.09350104 -7.08343716 18.49586751 0 0 Z " fill="#DBDAD8" transform="translate(329,261)"/>
<path d="M0 0 C11.70105586 8.10758439 18.64939519 17.90794642 21.40625 32.08984375 C23.82909065 48.63674407 18.72218312 65.74704354 9.16015625 79.1875 C-1.32062924 92.833369 -15.45690627 105.12408299 -33 108 C-38.77188608 108.54451755 -43.02367054 108.31755297 -48 105 C-49.92274775 102.94464895 -50.85630791 101.6106914 -51.5 98.875 C-51.88573402 96.59876637 -51.88573402 96.59876637 -55 95 C-53.65808594 94.96132812 -53.65808594 94.96132812 -52.2890625 94.921875 C-36.77666838 94.19421472 -25.66423534 88.09799416 -13.8125 78.3203125 C-12 77 -12 77 -10 77 C-9.62294922 75.92105469 -9.62294922 75.92105469 -9.23828125 74.8203125 C-7.89420915 71.7590505 -6.24216728 69.50717414 -4.1875 66.875 C-0.21571837 61.51453386 2.58471765 56.20288422 5 50 C5.3196875 49.27039063 5.639375 48.54078125 5.96875 47.7890625 C10.31353444 36.32365911 9.75308501 19.21430995 5 8 C3.48969938 5.71656931 1.92107666 3.97299765 0 2 C0 1.34 0 0.68 0 0 Z " fill="#DAD9D7" transform="translate(317,120)"/>
<path d="M0 0 C0.75474609 -0.00386719 1.50949219 -0.00773438 2.28710938 -0.01171875 C5.84074793 -0.00545683 9.01996808 0.16704464 12.4375 1.125 C12.4375 1.785 12.4375 2.445 12.4375 3.125 C13.22125 3.351875 14.005 3.57875 14.8125 3.8125 C17.4375 5.125 17.4375 5.125 18.8125 7.5625 C19.4375 10.125 19.4375 10.125 18.4375 13.125 C17.509375 12.91875 16.58125 12.7125 15.625 12.5 C5.30341022 11.06413368 -5.97968658 15.24096678 -14.1875 21.3125 C-29.26293042 33.83997035 -37.63736792 50.75459884 -39.5625 70.125 C-40.42088184 83.14046422 -37.35995436 94.53009128 -31.5625 106.125 C-41.4597505 101.64200032 -46.14260415 92.1318127 -49.8125 82.4375 C-54.92410806 68.29678098 -53.87610594 50.63558248 -47.79296875 36.94140625 C-45.8816364 32.90834538 -43.77732616 28.99847755 -41.5625 25.125 C-41.04300781 24.21363281 -40.52351562 23.30226562 -39.98828125 22.36328125 C-36.63890139 16.95839156 -32.56220698 13.01582255 -27.5625 9.125 C-26.96179688 8.650625 -26.36109375 8.17625 -25.7421875 7.6875 C-17.71887982 1.64303502 -9.88889504 -0.05092993 0 0 Z " fill="#DAD9D7" transform="translate(245.5625,155.875)"/>
<path d="M0 0 C2 1 2 1 2.8515625 3.50390625 C3.56770833 6.3359375 4.28385417 9.16796875 5 12 C9.29 12 13.58 12 18 12 C15.55630984 16.88738031 13.45928193 18.02714538 9 21 C10.485 27.435 10.485 27.435 12 34 C8 32 8 32 5 29.8125 C2.29871565 27.76282278 2.29871565 27.76282278 0.0390625 28.2265625 C-2.18030471 29.06839144 -3.75062348 30.11336749 -5.625 31.5625 C-8.78753541 34 -8.78753541 34 -11 34 C-10.01 29.71 -9.02 25.42 -8 21 C-9.485 19.88625 -10.97 18.7725 -12.5 17.625 C-15.03125 15.7265625 -15.03125 15.7265625 -17 14 C-17 13.34 -17 12.68 -17 12 C-12.71 12 -8.42 12 -4 12 C-3.525625 10.205625 -3.05125 8.41125 -2.5625 6.5625 C-1.125 1.125 -1.125 1.125 0 0 Z " fill="#D5A864" transform="translate(238,216)"/>
<path d="M0 0 C2 1 2 1 2.8515625 3.50390625 C3.56770833 6.3359375 4.28385417 9.16796875 5 12 C9.29 12 13.58 12 18 12 C17.67 12.66 17.34 13.32 17 14 C14.54066009 13.88630789 12.0832091 13.75957349 9.625 13.625 C8.92632812 13.5940625 8.22765625 13.563125 7.5078125 13.53125 C2.2265625 13.2265625 2.2265625 13.2265625 0 11 C-0.391875 11.639375 -0.78375 12.27875 -1.1875 12.9375 C-3.38472296 15.43778819 -4.75791433 15.64950425 -8 16 C-8 16.66 -8 17.32 -8 18 C-7.01 18 -6.02 18 -5 18 C-4.75 23.625 -4.75 23.625 -7 27 C-5.35 27.33 -3.7 27.66 -2 28 C-4.96631949 30.47193291 -7.51236907 32.25618453 -11 34 C-10.01 29.71 -9.02 25.42 -8 21 C-9.485 19.88625 -10.97 18.7725 -12.5 17.625 C-15.03125 15.7265625 -15.03125 15.7265625 -17 14 C-17 13.34 -17 12.68 -17 12 C-12.71 12 -8.42 12 -4 12 C-3.525625 10.205625 -3.05125 8.41125 -2.5625 6.5625 C-1.125 1.125 -1.125 1.125 0 0 Z M0 13 C2 14 2 14 2 14 Z " fill="#CDAB6D" transform="translate(238,216)"/>
<path d="M0 0 C-12.84280481 7.86294172 -26.5371662 7.14559923 -41.125 7.0625 C-42.66926938 7.0574735 -44.21354034 7.05291264 -45.7578125 7.04882812 C-49.50524187 7.03791697 -53.25261049 7.02071614 -57 7 C-57 6.34 -57 5.68 -57 5 C-58.32 4.34 -59.64 3.68 -61 3 C-60.38294189 3.07105957 -59.76588379 3.14211914 -59.13012695 3.21533203 C-40.39521029 5.28948693 -22.56827277 5.76609869 -4.51953125 -0.29296875 C-2 -1 -2 -1 0 0 Z " fill="#DBBF93" transform="translate(296,269)"/>
<path d="M0 0 C0.33 0 0.66 0 1 0 C1.12612696 7.56761772 1.12612696 7.56761772 0.50219727 9.70654297 C-0.17092782 12.78060082 -0.12990682 15.68909082 -0.1328125 18.8359375 C-0.13413177 19.50408981 -0.13545105 20.17224213 -0.1368103 20.86064148 C-0.13872409 23.0321417 -0.13239666 25.20351292 -0.125 27.375 C-0.12411377 28.11088348 -0.12322754 28.84676697 -0.12231445 29.60494995 C-0.10462748 42.09076288 0.25342735 54.53490305 1 67 C0.67 67 0.34 67 0 67 C-4.03802011 44.57456686 -4.58003482 22.38219396 0 0 Z " fill="#E0C7A0" transform="translate(135,219)"/>
<path d="M0 0 C0.66 0.33 1.32 0.66 2 1 C0.25 4.875 0.25 4.875 -2 6 C-1.67 6.66 -1.34 7.32 -1 8 C-1.763125 8.0825 -2.52625 8.165 -3.3125 8.25 C-6.58667315 9.16372274 -7.03758014 10.35499931 -9 13 C-10.32 13 -11.64 13 -13 13 C-13.268125 13.5775 -13.53625 14.155 -13.8125 14.75 C-15.76943809 18.4578827 -16.92938213 20.64312738 -21 22 C-22.66710346 23.49985609 -22.66710346 23.49985609 -24 25 C-24.66 24.67 -25.32 24.34 -26 24 C-18.30578996 14.83454566 -9.64691041 7.07751538 0 0 Z " fill="#DDBF92" transform="translate(199,120)"/>
<path d="M0 0 C5.47035213 3.79037089 9.89962427 7.75027653 14 13 C13.67 13.66 13.34 14.32 13 15 C12.34 15 11.68 15 11 15 C10.67 20.61 10.34 26.22 10 32 C9.67 32 9.34 32 9 32 C8.90203125 30.80503906 8.8040625 29.61007813 8.703125 28.37890625 C7.92448401 14.8137026 7.92448401 14.8137026 1.37109375 3.40234375 C0 2 0 2 0 0 Z " fill="#E3D9CB" transform="translate(317,120)"/>
<path d="M0 0 C1.65 0 3.3 0 5 0 C4.64164063 0.70511719 4.28328125 1.41023437 3.9140625 2.13671875 C2.79314751 5.64796099 3.28443488 7.33108058 4.375 10.8125 C4.67148438 11.78832031 4.96796875 12.76414063 5.2734375 13.76953125 C5.51320312 14.50558594 5.75296875 15.24164063 6 16 C3.16661778 14.62159784 0.44311194 13.13581614 -2.25 11.5 C-2.95640625 11.0771875 -3.6628125 10.654375 -4.390625 10.21875 C-4.92171875 9.8165625 -5.4528125 9.414375 -6 9 C-6 8.34 -6 7.68 -6 7 C-4.35 7 -2.7 7 -1 7 C-0.67 4.69 -0.34 2.38 0 0 Z " fill="#D5B681" transform="translate(244,234)"/>
<path d="M0 0 C2 1 2 1 2.8515625 3.50390625 C3.56770833 6.3359375 4.28385417 9.16796875 5 12 C9.29 12 13.58 12 18 12 C17.67 12.66 17.34 13.32 17 14 C14.60160083 13.93966291 12.2091615 13.85255482 9.8125 13.75 C8.80219727 13.72873047 8.80219727 13.72873047 7.77148438 13.70703125 C2.94306431 13.47149856 0.45287574 12.35230654 -3 9 C-2.01 6.03 -1.02 3.06 0 0 Z M0 13 C2 14 2 14 2 14 Z " fill="#E1C396" transform="translate(238,216)"/>
<path d="M0 0 C0.33 0 0.66 0 1 0 C0.9278125 0.62003906 0.855625 1.24007812 0.78125 1.87890625 C-0.64102345 15.44976538 -0.15303576 27.76851066 3 41 C2.01 41 1.02 41 0 41 C-1.83800692 33.22129213 -2.21827495 25.65180825 -2.25 17.6875 C-2.25902344 16.74503418 -2.26804688 15.80256836 -2.27734375 14.83154297 C-2.25467215 9.49710423 -1.75354289 5.04491507 0 0 Z " fill="#CDAD7D" transform="translate(194,201)"/>
<path d="M0 0 C0.93714844 0.26554687 1.87429687 0.53109375 2.83984375 0.8046875 C15.75644374 4.24824622 28.68870111 5.21046907 42 6 C42 6.33 42 6.66 42 7 C27.60234248 7.31720665 13.74674956 6.85179396 0 2 C0 1.34 0 0.68 0 0 Z " fill="#E0D3C2" transform="translate(182,343)"/>
<path d="M0 0 C0 0.99 0 1.98 0 3 C-5.1577393 7.58465715 -11.38933945 8.58801425 -18 10 C-15.3137382 6.87084199 -12.04608071 5.2357324 -8.4375 3.3125 C-7.28121094 2.68988281 -6.12492188 2.06726563 -4.93359375 1.42578125 C-2 0 -2 0 0 0 Z " fill="#D9BB8E" transform="translate(219,110)"/>
<path d="M0 0 C1.98 0 3.96 0 6 0 C-0.29981685 5.51233974 -6.80426969 6.30715497 -14.8125 6.4375 C-15.56619873 6.45965576 -16.31989746 6.48181152 -17.09643555 6.50463867 C-22.52041412 6.48331082 -22.52041412 6.48331082 -25.01171875 3.97265625 C-25.33785156 3.32167969 -25.66398437 2.67070312 -26 2 C-23.03 2.495 -23.03 2.495 -20 3 C-20 3.66 -20 4.32 -20 5 C-17.39533457 4.69127671 -14.79132309 4.37818277 -12.1875 4.0625 C-11.44951172 3.97548828 -10.71152344 3.88847656 -9.95117188 3.79882812 C-6.83266879 3.41783454 -3.98891878 2.99630626 -1 2 C-0.67 1.34 -0.34 0.68 0 0 Z " fill="#CDAE79" transform="translate(282,209)"/>
<path d="M0 0 C0.66 0 1.32 0 2 0 C1.67 2.31 1.34 4.62 1 7 C2.65 7.33 4.3 7.66 6 8 C3.10324519 10.41396234 0.40212299 12.38617243 -3 14 C-2.7834375 13.07316406 -2.566875 12.14632812 -2.34375 11.19140625 C-2.0653125 9.99386719 -1.786875 8.79632813 -1.5 7.5625 C-1.2215625 6.36753906 -0.943125 5.17257813 -0.65625 3.94140625 C0.0362923 1.33962011 0.0362923 1.33962011 0 0 Z " fill="#DCC39A" transform="translate(230,236)"/>
<path d="M0 0 C3.34373475 0.55728913 6.03312999 1.35173889 9 3 C9 3.99 9 4.98 9 6 C10.65 6.33 12.3 6.66 14 7 C14 7.66 14 8.32 14 9 C14.99 9.33 15.98 9.66 17 10 C16.01 10.495 16.01 10.495 15 11 C9.37336494 8.63681328 4.46083967 5.11769815 0 1 C0 0.67 0 0.34 0 0 Z " fill="#D5B88A" transform="translate(159,329)"/>
<path d="M0 0 C3.16115776 1.36983503 3.9927092 1.9890638 6 5 C6 5.99 6 6.98 6 8 C6.639375 8.226875 7.27875 8.45375 7.9375 8.6875 C10 10 10 10 10.75 12.625 C10.87375 13.800625 10.87375 13.800625 11 15 C6.82616605 11.07168569 3.10605574 6.83520017 0 2 C0 1.34 0 0.68 0 0 Z " fill="#DBBF90" transform="translate(146,312)"/>
<path d="M0 0 C1.65 3.63 3.3 7.26 5 11 C1.50646162 9.25323081 -0.13945763 8.08594785 -2.75 5.375 C-3.36359375 4.74335938 -3.9771875 4.11171875 -4.609375 3.4609375 C-5.06828125 2.97882813 -5.5271875 2.49671875 -6 2 C-3 0 -3 0 0 0 Z " fill="#E2DACD" transform="translate(209,251)"/>
<path d="M0 0 C0.33 0 0.66 0 1 0 C0.67 5.61 0.34 11.22 0 17 C-0.99 17.33 -1.98 17.66 -3 18 C-3 19.65 -3 21.3 -3 23 C-3.66 22.67 -4.32 22.34 -5 22 C-4.72285156 20.83082031 -4.44570313 19.66164062 -4.16015625 18.45703125 C-3.79422599 16.90886477 -3.42834307 15.36068709 -3.0625 13.8125 C-2.88009766 13.04357422 -2.69769531 12.27464844 -2.50976562 11.48242188 C-1.60879887 7.66559908 -0.73362003 3.85343574 0 0 Z " fill="#D9C194" transform="translate(265,170)"/>
<path d="M0 0 C-1 2 -1 2 -4.1875 3.125 C-10.3550991 4.56824074 -16.70950878 4.15902927 -23 4 C-23 3.67 -23 3.34 -23 3 C-21.66195312 2.80083984 -21.66195312 2.80083984 -20.296875 2.59765625 C-19.12640625 2.42105469 -17.9559375 2.24445313 -16.75 2.0625 C-15.00976562 1.80146484 -15.00976562 1.80146484 -13.234375 1.53515625 C-10.15326267 1.07199958 -10.15326267 1.07199958 -7.78125 0.4375 C-5.18485402 -0.20021129 -2.65956046 -0.06044456 0 0 Z " fill="#E0D1C1" transform="translate(247,345)"/>
<path d="M0 0 C3.96 0 7.92 0 12 0 C11.67 0.99 11.34 1.98 11 3 C8.4375 4.1875 8.4375 4.1875 6 5 C5.566875 4.54625 5.13375 4.0925 4.6875 3.625 C2.89201658 1.79975666 2.89201658 1.79975666 0 0 Z " fill="#D1B47F" transform="translate(243,229)"/>
<path d="M0 0 C0.33 0.99 0.66 1.98 1 3 C0.36191406 3.12117187 -0.27617187 3.24234375 -0.93359375 3.3671875 C-2.17302734 3.61855469 -2.17302734 3.61855469 -3.4375 3.875 C-4.26121094 4.03742188 -5.08492187 4.19984375 -5.93359375 4.3671875 C-6.61550781 4.57601562 -7.29742187 4.78484375 -8 5 C-8.33 5.66 -8.66 6.32 -9 7 C-11 5.625 -11 5.625 -13 4 C-13 3.34 -13 2.68 -13 2 C-8.71 2 -4.42 2 0 2 C0 1.34 0 0.68 0 0 Z " fill="#E2CDAB" transform="translate(234,226)"/>
<path d="M0 0 C2 1 2 1 3 3 C1.2984375 3.433125 1.2984375 3.433125 -0.4375 3.875 C-1.613125 4.24625 -2.78875 4.6175 -4 5 C-4.33 5.66 -4.66 6.32 -5 7 C-8.06146896 8.96808719 -10.40164967 9.19990835 -14 9 C-12.48099259 5.96198518 -10.01766132 5.38583509 -7 3.9375 C-3.25431146 2.339815 -3.25431146 2.339815 0 0 Z " fill="#DFD2BF" transform="translate(270,333)"/>
<path d="M0 0 C0.66 0.33 1.32 0.66 2 1 C-8.66666667 10 -8.66666667 10 -13 10 C-12.80859375 8.1328125 -12.80859375 8.1328125 -12 6 C-9.78515625 4.8046875 -9.78515625 4.8046875 -7.0625 3.875 C-3.1570589 2.55635657 -3.1570589 2.55635657 0 0 Z " fill="#CEAC7C" transform="translate(280,325)"/>
<path d="M0 0 C0.5625 1.9375 0.5625 1.9375 1 4 C0.67 4.33 0.34 4.66 0 5 C0.33 5.66 0.66 6.32 1 7 C0.21625 7.20625 -0.5675 7.4125 -1.375 7.625 C-4.30916286 8.80676612 -4.30916286 8.80676612 -5.3125 12.125 C-5.6528125 13.548125 -5.6528125 13.548125 -6 15 C-6.66 15 -7.32 15 -8 15 C-6.62712658 11.30123909 -4.93644547 8.0485524 -2.875 4.6875 C-2.33617187 3.80449219 -1.79734375 2.92148438 -1.2421875 2.01171875 C-0.83226562 1.34785156 -0.42234375 0.68398437 0 0 Z " fill="#DDC396" transform="translate(162,157)"/>
<path d="M0 0 C1.18239258 0.00676758 1.18239258 0.00676758 2.38867188 0.01367188 C4.32164761 0.02538688 6.25458393 0.04332002 8.1875 0.0625 C8.1875 0.3925 8.1875 0.7225 8.1875 1.0625 C7.20007813 1.12308594 6.21265625 1.18367187 5.1953125 1.24609375 C3.91398437 1.32988281 2.63265625 1.41367188 1.3125 1.5 C0.03632813 1.58121094 -1.23984375 1.66242188 -2.5546875 1.74609375 C-5.69550152 1.85456027 -5.69550152 1.85456027 -7.8125 3.0625 C-10.4848621 3.19665472 -13.13500488 3.10568541 -15.8125 3.0625 C-11.69400695 -1.05599305 -5.47596207 -0.059671 0 0 Z " fill="#E0D5C5" transform="translate(245.8125,155.9375)"/>
<path d="M0 0 C6.10888722 0.40238179 12.29667686 1.782041 18 4 C18 4.33 18 4.66 18 5 C13.33958879 5.18276122 10.26204741 4.76719039 6 3 C3.33612619 2.54604398 0.69119651 2.273681 -2 2 C-1.34 1.34 -0.68 0.68 0 0 Z " fill="#DEC296" transform="translate(280,101)"/>
<path d="M0 0 C3.59391114 1.33488128 6.75490696 2.96022723 10 5 C9.01 6.485 9.01 6.485 8 8 C4.63820226 6.55922954 2.40843732 4.75249979 0 2 C0 1.34 0 0.68 0 0 Z " fill="#E6DED0" transform="translate(167,336)"/>
<path d="M0 0 C0.33 0 0.66 0 1 0 C1.19392201 5.52677733 0.7479503 9.75614911 -1 15 C-1.66 15 -2.32 15 -3 15 C-2.44854729 9.76119922 -1.57077907 5.02649303 0 0 Z " fill="#D9C090" transform="translate(139,204)"/>
<path d="M0 0 C0.66 0.33 1.32 0.66 2 1 C-2.625 6.875 -2.625 6.875 -6 8 C-7.66710346 9.49985609 -7.66710346 9.49985609 -9 11 C-9.66 10.67 -10.32 10.34 -11 10 C-8.3310967 6.34261399 -5.95013947 4.18297181 -2 2 C-1.34 1.34 -0.68 0.68 0 0 Z " fill="#D6B384" transform="translate(184,134)"/>
<path d="M0 0 C2.3129482 2.3129482 2.49580975 3.47904875 3.125 6.625 C3.29257813 7.44226563 3.46015625 8.25953125 3.6328125 9.1015625 C3.81457031 10.04128906 3.81457031 10.04128906 4 11 C1.1394109 9.64062915 -0.85927699 8.35479531 -3 6 C-2.34 6 -1.68 6 -1 6 C-0.67 4.02 -0.34 2.04 0 0 Z " fill="#DDC9A5" transform="translate(246,239)"/>
<path d="M0 0 C0.33 0.99 0.66 1.98 1 3 C-0.21484375 5.04296875 -0.21484375 5.04296875 -1.9375 7.1875 C-2.50339844 7.90292969 -3.06929687 8.61835938 -3.65234375 9.35546875 C-4.09707031 9.89816406 -4.54179687 10.44085938 -5 11 C-5.66 10.67 -6.32 10.34 -7 10 C-5.33248852 6.05860922 -2.77289351 3.2107188 0 0 Z " fill="#DBC197" transform="translate(172,145)"/>
<path d="M0 0 C3.11020134 2.54471018 4.00133026 5.15896252 5 9 C5.125 11.875 5.125 11.875 5 14 C2.96470413 11.96470413 2.3615728 10.76582618 1.375 8.125 C1.11460937 7.44695312 0.85421875 6.76890625 0.5859375 6.0703125 C0 4 0 4 0 0 Z " fill="#CBB07E" transform="translate(320,125)"/>
<path d="M0 0 C0.33 0.66 0.66 1.32 1 2 C-1.31 4.64 -3.62 7.28 -6 10 C-6.99 9.67 -7.98 9.34 -9 9 C-6 6 -3 3 0 0 Z " fill="#E0D3C2" transform="translate(217,166)"/>
<path d="M0 0 C6.4 -0.49230769 6.4 -0.49230769 9.4375 2 C10.2109375 2.99 10.2109375 2.99 11 4 C10.01 4.495 10.01 4.495 9 5 C9 4.34 9 3.68 9 3 C5.7 2.67 2.4 2.34 -1 2 C-0.67 1.34 -0.34 0.68 0 0 Z " fill="#DAC599" transform="translate(317,250)"/>
<path d="M0 0 C0.66 0 1.32 0 2 0 C0.52307692 5.66153846 0.52307692 5.66153846 -2.125 7.375 C-3.053125 7.684375 -3.053125 7.684375 -4 8 C-4.33 7.34 -4.66 6.68 -5 6 C-3.38405168 3.95880212 -1.7143618 1.95927063 0 0 Z " fill="#CEAC71" transform="translate(317,177)"/>
<path d="M0 0 C2.6875 1.4375 2.6875 1.4375 5 3 C3 5 3 5 -0.125 5.125 C-1.548125 5.063125 -1.548125 5.063125 -3 5 C-3 3.68 -3 2.36 -3 1 C-2.01 0.67 -1.02 0.34 0 0 Z " fill="#DBB680" transform="translate(309,112)"/>
<path d="M0 0 C2.97 0.495 2.97 0.495 6 1 C6 1.66 6 2.32 6 3 C8.64 3 11.28 3 14 3 C14 3.33 14 3.66 14 4 C12.23050905 4.10815225 10.45912513 4.18566083 8.6875 4.25 C7.70136719 4.29640625 6.71523438 4.3428125 5.69921875 4.390625 C3 4 3 4 1.14453125 1.984375 C0.57798828 1.00210938 0.57798828 1.00210938 0 0 Z " fill="#D1B485" transform="translate(256,211)"/>
<path d="M0 0 C0.33 0 0.66 0 1 0 C1.28571429 7.42857143 1.28571429 7.42857143 -1 11 C-1.66 10.67 -2.32 10.34 -3 10 C-2.01 6.7 -1.02 3.4 0 0 Z " fill="#E0D0BF" transform="translate(325,160)"/>
<path d="M0 0 C0.99 0 1.98 0 3 0 C1.79157144 4.43090471 0.48331435 6.98112756 -3 10 C-2.39009109 6.44219804 -1.4216319 3.3171411 0 0 Z " fill="#CEAD7A" transform="translate(316,280)"/>
<path d="M0 0 C0.66 0 1.32 0 2 0 C2.69699552 1.45381897 3.38233866 2.91322953 4.0625 4.375 C4.63677734 5.59316406 4.63677734 5.59316406 5.22265625 6.8359375 C5.47917969 7.55007812 5.73570312 8.26421875 6 9 C5.67 9.66 5.34 10.32 5 11 C0.57142857 3.57142857 0.57142857 3.57142857 0 0 Z " fill="#E1D5C3" transform="translate(197,240)"/>
<path d="M0 0 C1.485 0.99 1.485 0.99 3 2 C3.1875 5.125 3.1875 5.125 3 8 C2.01 8.495 2.01 8.495 1 9 C0 2.25 0 2.25 0 0 Z " fill="#D8B37D" transform="translate(314,116)"/>
<path d="M0 0 C-4.95 2.475 -4.95 2.475 -10 5 C-10.33 4.34 -10.66 3.68 -11 3 C-4.5 -1.125 -4.5 -1.125 0 0 Z " fill="#CAAD7B" transform="translate(267,336)"/>
<path d="M0 0 C1.125 3.75 1.125 3.75 0 6 C-0.66 6 -1.32 6 -2 6 C-2 6.99 -2 7.98 -2 9 C-2.99 9.33 -3.98 9.66 -5 10 C-3.66511872 6.40608886 -2.03977277 3.24509304 0 0 Z " fill="#DED2C1" transform="translate(207,176)"/>
<path d="M0 0 C2.31 0.33 4.62 0.66 7 1 C7 2.32 7 3.64 7 5 C7.66 5 8.32 5 9 5 C8.67 5.99 8.34 6.98 8 8 C8 7.34 8 6.68 8 6 C7.01 5.67 6.02 5.34 5 5 C4.3125 2.9375 4.3125 2.9375 4 1 C2.68 0.67 1.36 0.34 0 0 Z " fill="#CDAA75" transform="translate(255,155)"/>
<path d="M0 0 C0.33 0.99 0.66 1.98 1 3 C-1.31 4.98 -3.62 6.96 -6 9 C-6.66 8.67 -7.32 8.34 -8 8 C-5.36 5.36 -2.72 2.72 0 0 Z " fill="#E7D1AF" transform="translate(313,254)"/>
<path d="M0 0 C5.75 -0.125 5.75 -0.125 8 1 C8 1.66 8 2.32 8 3 C6.125 3.625 6.125 3.625 4 4 C2.66666667 2.66666667 1.33333333 1.33333333 0 0 Z " fill="#DAD8D2" transform="translate(174,342)"/>
<path d="M0 0 C2.97 0.99 5.94 1.98 9 3 C9 3.33 9 3.66 9 4 C3.375 4.25 3.375 4.25 0 2 C0 1.34 0 0.68 0 0 Z " fill="#D8BC97" transform="translate(219,266)"/>
<path d="M0 0 C0 0.66 0 1.32 0 2 C-4.15267176 5.11450382 -4.15267176 5.11450382 -7.3125 4.6875 C-7.869375 4.460625 -8.42625 4.23375 -9 4 C-2.25 0 -2.25 0 0 0 Z " fill="#DED2C0" transform="translate(230,159)"/>
<path d="M0 0 C2.31 0.33 4.62 0.66 7 1 C7 2.98 7 4.96 7 7 C6.67 5.68 6.34 4.36 6 3 C5.38125 2.87625 4.7625 2.7525 4.125 2.625 C2 2 2 2 0 0 Z " fill="#D4B682" transform="translate(226,233)"/>
<path d="M0 0 C0.66 0.33 1.32 0.66 2 1 C1.375 2.9375 1.375 2.9375 0 5 C-3.125 5.75 -3.125 5.75 -6 6 C-4 4 -2 2 0 0 Z " fill="#DFC499" transform="translate(199,120)"/>
</svg>
